<svg id="visual" viewBox="0 0 900 600" width="900" height="600" xmlns="http://www.w3.org/2000/svg" xmlns:xlink="http://www.w3.org/1999/xlink" version="1.1"><rect x="0" y="0" width="900" height="600" fill="#002233"></rect><path d="M0 429L21.5 431C43 433 86 437 128.8 448C171.7 459 214.3 477 257.2 480.5C300 484 343 473 385.8 462.5C428.7 452 471.3 442 514.2 427.5C557 413 600 394 642.8 391.2C685.7 388.3 728.3 401.7 771.2 425.7C814 449.7 857 484.3 878.5 501.7L900 519L900 601L878.5 601C857 601 814 601 771.2 601C728.3 601 685.7 601 642.8 601C600 601 557 601 514.2 601C471.3 601 428.7 601 385.8 601C343 601 300 601 257.2 601C214.3 601 171.7 601 128.8 601C86 601 43 601 21.5 601L0 601Z" fill="#0066FF" stroke-linecap="round" stroke-linejoin="miter"></path></svg>